<?xml version="1.0" encoding="utf-8"?>
<!-- Generator: Adobe Illustrator 26.0.1, SVG Export Plug-In . SVG Version: 6.00 Build 0)  -->
<svg version="1.1" id="Ebene_1" xmlns="http://www.w3.org/2000/svg" xmlns:xlink="http://www.w3.org/1999/xlink" x="0px" y="0px"
	 viewBox="0 0 512 512" style="enable-background:new 0 0 512 512;" xml:space="preserve">
<style type="text/css">
	.st0{fill:#FFFFFF;}
</style>
<g>
	<path class="st0" d="M452.47,59.52H332.82c-9.33-17.67-25.39-30.84-44.55-36.5c-1.74-7.38-8.32-12.6-15.9-12.62h-32.75
		c-7.45,0.02-13.94,5.07-15.8,12.28c-19.29,5.76-35.44,19.04-44.84,36.84H59.53c-18.08,0-32.74,14.66-32.74,32.74v278.34
		c0,18.08,14.66,32.74,32.74,32.74h98.24v19.81l-53.21,30.39c-0.38,0.26-0.74,0.55-1.07,0.87c-0.28,0.2-0.56,0.42-0.82,0.65
		c-0.62,0.65-1.12,1.4-1.5,2.22c0,0.08-0.09,0.12-0.12,0.2c-0.37,0.93-0.57,1.92-0.59,2.91c0,0.09-0.05,0.16-0.05,0.25v24.56
		c0,9.04,7.33,16.37,16.37,16.37h278.4c9.04,0,16.37-7.33,16.37-16.37v-24.56c0-0.09-0.05-0.16-0.05-0.25
		c-0.02-1-0.22-1.99-0.59-2.91c0-0.08-0.1-0.13-0.13-0.21c-0.37-0.82-0.87-1.56-1.49-2.21c-0.26-0.24-0.53-0.45-0.82-0.65
		c-0.33-0.32-0.69-0.61-1.07-0.87l-53.16-30.39v-19.81h98.24c18.08,0,32.74-14.66,32.74-32.74V92.27
		C485.22,74.18,470.56,59.52,452.47,59.52L452.47,59.52z M452.47,75.9c9.04,0,16.37,7.33,16.37,16.37v229.23h-40.93v-4.26
		c0-10.77-7.03-20.29-17.32-23.46l-90.04-27.74l-4.65-27.88c2.86-2.5,5.3-5.44,7.23-8.71c3.67-7.55,5.89-15.73,6.55-24.1
		c9.48-2.08,16.03-10.78,15.4-20.47c0-3.24,0.72-6.43,2.1-9.36c0.79-1.82,1.67-3.6,2.65-5.33c5.93-8.81,5.98-20.32,0.12-29.18
		c5.07-0.75,9.76-3.12,13.37-6.77c4.7-4.56,7.34-10.85,7.3-17.41c0-13.56-11-24.56-24.56-24.56h-1.34
		c-1.14-5.55-2.65-11.02-4.53-16.37L452.47,75.9z M100.45,321.49v-4.26c-0.02-3.58,2.31-6.75,5.73-7.81l88.66-27.31
		c6.55,9,22.86,23,61.12,23c38.26,0,54.58-14.02,61.12-23l88.73,27.33c3.42,1.05,5.74,4.22,5.73,7.79v4.26L100.45,321.49z
		 M231.43,108.64h114.61c4.52,0,8.19,3.67,8.19,8.19c0,2.21-0.9,4.32-2.51,5.84c-1.49,1.52-3.54,2.37-5.67,2.35H165.94
		c-4.52,0-8.19-3.67-8.19-8.19c0-2.21,0.9-4.32,2.51-5.83c1.49-1.52,3.54-2.37,5.67-2.35L231.43,108.64z M175.25,150.68
		c1.52-1.31,3.7-1.48,5.41-0.44c3.28,1.41,7.09,0.62,9.53-1.97c1.55-1.72,2.3-4.02,2.07-6.33l-0.06-0.55h127.58l-0.06,0.55
		c0,0.19,0.06,0.35,0.06,0.53c0.03,1.08,0.21,2.16,0.52,3.19c0.05,0.17,0,0.34,0.11,0.51c0.18,0.28,0.38,0.56,0.6,0.82
		c0.27,0.47,0.6,0.91,0.96,1.32c0.37,0.38,0.77,0.72,1.21,1.01c0.84,0.67,1.84,1.12,2.91,1.3c0.3,0.12,0.62,0.22,0.94,0.29
		c0.28,0,0.56,0.04,0.82,0.04h0.1c0.36-0.04,0.71-0.11,1.06-0.2c0.69-0.07,1.37-0.23,2.02-0.47c0.07-0.01,0.14-0.03,0.21-0.05
		c1.72-1.06,3.92-0.89,5.46,0.4c1.48,1.58,2.01,5.6-1.33,11.77c-1.39,2.59-2.56,4.91-3.36,6.85c-2.28,5.05-3.42,10.54-3.34,16.09
		c0.09,1.09-0.22,2.18-0.86,3.06c-1.75,1.16-3.85,1.68-5.93,1.46c-4.52,0-8.19,3.66-8.19,8.19c-0.02,8.12-1.71,16.15-4.98,23.59
		c-6.45,7.61-14.6,13.6-23.8,17.48c-2.53,1.12-4.76,2.8-6.55,4.91c-5.5,6.89-13.58,11.22-22.37,11.98
		c-8.77-0.75-16.85-5.07-22.34-11.94c-1.7-2.03-3.82-3.66-6.22-4.77c-9.39-3.79-17.69-9.84-24.17-17.62
		c-3.27-7.45-4.96-15.49-5-23.63c0-4.52-3.67-8.19-8.19-8.19c-2.09,0.22-4.18-0.3-5.93-1.46c-0.63-0.89-0.92-1.97-0.82-3.06
		c0.01-5.52-1.15-10.98-3.39-16.02c-0.82-2.02-2.01-4.32-3.42-6.96C173.24,156.26,173.78,152.26,175.25,150.68L175.25,150.68z
		 M220.41,254.06c0.32,0.15,0.6,0.39,0.82,0.67c8.6,10.49,21.21,16.89,34.76,17.63c13.57-0.75,26.19-7.17,34.8-17.68
		c0.31-0.37,0.71-0.65,1.16-0.82c2.89-1.47,6.01-3.15,9.13-5l3.73,22.35c-2.61,4.51-13.26,17.52-48.82,17.52
		c-35.77,0-46.33-13.16-48.82-17.47l3.73-22.4C214.13,250.77,217.37,252.52,220.41,254.06L220.41,254.06z M327.98,92.27h-39.24
		v-51.8C313.47,50.27,323.76,73.92,327.98,92.27z M239.62,26.78h32.75v65.49h-32.75V26.78z M223.25,40.26v52.01h-39.25
		C188.25,73.79,198.54,49.99,223.25,40.26z M59.52,75.9h112.16c-1.85,5.35-3.33,10.82-4.42,16.37h-1.31
		c-13.53,0.07-24.49,11.03-24.56,24.56c0.04,12.05,8.82,22.29,20.72,24.18c-5.9,8.83-5.87,20.34,0.07,29.14
		c1.07,2,2.02,3.8,2.69,5.44c1.35,2.92,2.08,6.09,2.15,9.3c-0.33,5.48,1.61,10.86,5.36,14.87c2.72,2.76,6.17,4.7,9.95,5.58
		c0.65,8.36,2.88,16.53,6.55,24.08c1.92,3.29,4.37,6.25,7.24,8.75L191.46,266l-89.97,27.72c-10.35,3.15-17.41,12.7-17.41,23.51v4.26
		H43.15V92.27C43.15,83.22,50.48,75.9,59.52,75.9L59.52,75.9z M116.83,485.22v-16.37h278.34v16.37H116.83z M139.47,452.47
		l28.65-16.37h175.75l28.65,16.37H139.47z M337.86,419.73H174.13v-16.37h163.72V419.73z M452.47,386.98H59.52
		c-9.04,0-16.37-7.33-16.37-16.37v-32.75h425.7v32.75C468.85,379.65,461.51,386.98,452.47,386.98L452.47,386.98z"/>
	<path class="st0" d="M272.37,354.24h-32.75c-4.52,0-8.19,3.67-8.19,8.19c0,4.52,3.67,8.19,8.19,8.19h32.75
		c4.52,0,8.19-3.67,8.19-8.19C280.55,357.9,276.89,354.24,272.37,354.24z"/>
</g>
</svg>
