<?xml version="1.0" encoding="utf-8"?>
<!-- Generator: Adobe Illustrator 26.0.1, SVG Export Plug-In . SVG Version: 6.00 Build 0)  -->
<svg version="1.1" id="Ebene_1" xmlns="http://www.w3.org/2000/svg" xmlns:xlink="http://www.w3.org/1999/xlink" x="0px" y="0px"
	 viewBox="0 0 512 512" style="enable-background:new 0 0 512 512;" xml:space="preserve">
<style type="text/css">
	.st0{fill:#FFFFFF;}
</style>
<g>
	<path class="st0" d="M89.02,232.36c-13.86-65.25,28.66-111.56,69.24-124.85c43.74-14.32,102.19,1.25,128.16,54.57
		c8.78-1.08,17.36-2.94,25.95-3.04c33.58-0.38,64.44,21.35,75.94,52.93c1.04,2.84,2.09,4.15,5.62,3.87
		c51.15-4.09,96.3,32.4,103.34,83.33c7.05,51-27.11,99.09-77.34,108.46c-7.21,1.34-14.69,1.76-22.04,1.76
		c-97.31,0.11-194.62,0.23-291.93,0c-39.83-0.09-68.85-18.26-85-54.87c-22.26-50.44,9.81-110.55,63.94-121.01
		C86.18,233.27,87.43,232.81,89.02,232.36z M252.11,392.93c0,0.02,0,0.04,0,0.06c48.74,0,97.48,0.06,146.22-0.07
		c6.51-0.02,13.14-0.4,19.49-1.7c41.75-8.56,68.31-48.25,63.53-88.59c-5.24-44.19-48.06-77.23-92.07-69.92
		c-9.62,1.6-11.74,0.28-14.57-9.02c-0.39-1.28-0.75-2.57-1.18-3.84c-7.35-21.35-21.84-35.36-43.44-41.83
		c-14.51-4.34-28.78-3.29-42.79,2.46c-7.08,2.91-10.41,1.4-13.62-5.58c-0.63-1.37-1.16-2.78-1.78-4.16
		c-21.61-48.42-83.98-66.35-128.39-37.37c-31.22,20.36-48.98,60.76-36.61,100.91c2.87,9.32,0.02,13.23-9.59,14.19
		c-4.15,0.42-8.38,0.77-12.4,1.82c-38.01,9.85-60.17,44.33-53.86,83.57c5.21,32.39,35.45,58.86,68.27,59.02
		C150.26,393.11,201.19,392.93,252.11,392.93z"/>
</g>
</svg>
