<?xml version="1.0" encoding="utf-8"?>
<!-- Generator: Adobe Illustrator 26.0.1, SVG Export Plug-In . SVG Version: 6.00 Build 0)  -->
<svg version="1.1" id="Ebene_1" xmlns="http://www.w3.org/2000/svg" xmlns:xlink="http://www.w3.org/1999/xlink" x="0px" y="0px"
	 viewBox="0 0 512 512" style="enable-background:new 0 0 512 512;" xml:space="preserve">
<style type="text/css">
	.st0{fill:#FFFFFF;}
</style>
<g>
	<path class="st0" d="M13.07,290.24c3.82-8.93,7.71-17.83,11.46-26.78c5.4-12.89,14.12-17.37,27.57-14
		c4.74,1.19,9.97,4.26,14.05,3.13c4.03-1.12,6.81-6.54,10.26-9.94c3.04-2.99,6.12-5.97,9.43-8.64c2.48-2,3.61-3.82,2.38-7.17
		c-1.46-3.97-2.18-8.21-3.19-12.35c-2.7-10.97,1.79-20.37,12.05-24.81c8.68-3.75,17.42-7.39,26.2-10.91
		c10.31-4.13,20.42-0.68,26.26,8.78c1.66,2.69,3.53,5.31,4.72,8.2c2.18,5.27,5.55,6.93,11.34,6.34c7.03-0.71,14.2,0.08,21.29-0.11
		c1.52-0.04,3.54-1.12,4.4-2.36c2.6-3.76,4.68-7.86,7.06-11.77c5.95-9.8,15.95-13.23,26.54-9c8.49,3.39,16.95,6.87,25.35,10.47
		c11.07,4.75,15.57,14.11,12.61,25.81c-1.28,5.04-4.49,10.6-3.31,14.96c1.16,4.28,6.83,7.32,10.46,10.95
		c2.24,2.23,4.83,4.29,6.45,6.92c3.03,4.91,6.69,5.65,11.77,3.54c3.02-1.26,6.36-1.78,9.58-2.56c10.5-2.55,20.19,2.1,24.53,12.02
		c3.85,8.81,7.55,17.7,11.09,26.64c3.92,9.91,0.61,19.89-8.38,25.61c-4.13,2.63-8.53,4.83-12.56,7.58
		c-1.25,0.85-2.35,2.87-2.39,4.39c-0.23,8.68-0.22,17.37-0.02,26.05c0.03,1.4,1.07,3.28,2.23,4.05c3.92,2.63,8.16,4.78,12.19,7.27
		c9.53,5.88,12.94,15.9,8.82,26.25c-3.5,8.79-7.12,17.53-10.9,26.2c-4.48,10.28-13.89,14.76-24.82,12.07
		c-4.28-1.05-8.64-1.89-12.82-3.28c-2.7-0.9-4.21-0.28-6.09,1.71c-5.63,5.96-11.44,11.78-17.41,17.4c-1.89,1.78-2.41,3.19-1.63,5.65
		c1.33,4.2,2.24,8.53,3.31,12.81c2.79,11.1-1.73,20.62-12.19,25.24c-9.6,4.24-19.28,8.28-28.93,12.41c-3.48,0-6.96,0-10.44,0
		c-7.64-2.86-12.5-8.53-16.01-15.65c-1.11-2.25-2.66-4.28-3.75-6.54c-1.11-2.3-2.56-2.91-5.19-2.8c-7.7,0.33-15.44,0.58-23.12,0.05
		c-4.14-0.28-6.16,0.95-8.01,4.45c-4.46,8.44-8.79,17.17-18.89,20.48c-3.16,0-6.33,0-9.49,0c-9.72-4.07-19.44-8.13-29.14-12.23
		c-10.84-4.59-15.53-13.92-12.73-25.25c0.68-2.75,1.01-5.65,2.12-8.22c2.58-5.98,1.24-10.31-4.34-13.71
		c-2.11-1.29-3.77-3.35-5.55-5.14c-3.75-3.75-6.89-9.57-11.32-10.79c-4.49-1.24-10.22,2.05-15.42,3.33
		c-11.37,2.8-20.63-1.83-25.26-12.71c-4.13-9.7-8.16-19.44-12.24-29.16c0-3.16,0-6.33,0-9.49c2.76-7.47,8.05-12.49,15.14-15.88
		c2.54-1.22,5.12-2.56,7.25-4.36c1.27-1.07,2.34-3.12,2.39-4.76c0.21-7.7-0.47-15.46,0.17-23.12c0.37-4.48-1.3-6.41-4.77-8.3
		c-8.23-4.49-16.82-8.71-20.18-18.54C13.07,297.2,13.07,293.72,13.07,290.24z M217.13,199.37c-3.29,5.49-6.13,10.58-9.3,15.46
		c-4.86,7.47-11.89,10.09-20.73,9.59c-8.8-0.5-17.67-0.42-26.47,0.02c-8.63,0.43-15.54-2.16-20.33-9.46
		c-2.6-3.95-5.03-8.03-7.26-12.2c-1.36-2.55-2.61-3.37-5.52-2.02c-5.85,2.72-11.86,5.14-17.91,7.37c-2.79,1.03-3.11,2.56-2.39,5.04
		c1.14,3.93,2.16,7.9,3.21,11.86c2.43,9.15-0.08,16.59-7.12,22.99c-6.64,6.04-13.08,12.37-19.06,19.06
		c-6.64,7.42-14.33,9.82-23.82,7.18c-4.83-1.34-9.72-2.48-14.91-3.79c-3.14,7.53-6.32,14.89-9.2,22.37c-0.35,0.9,0.6,2.94,1.54,3.57
		c3.66,2.46,7.55,4.58,11.37,6.81c8.57,5.01,11.78,12.47,11.17,22.28c-0.52,8.31-0.55,16.71-0.01,25.02
		c0.63,9.8-2.49,17.31-11.04,22.35c-3.81,2.25-7.7,4.35-11.37,6.8c-0.97,0.65-2.03,2.65-1.7,3.51c2.87,7.47,6.05,14.81,9.25,22.47
		c5.24-1.33,10.14-2.45,14.96-3.83c9.54-2.73,17.16-0.1,23.76,7.28c5.88,6.57,12.14,12.87,18.73,18.73
		c7.41,6.6,10.01,14.21,7.33,23.75c-1.39,4.94-2.52,9.94-3.79,15.02c5.47,2.29,10.41,4.36,15.34,6.43
		c9.11,3.81,9.11,3.81,13.99-4.53c1.12-1.91,2.25-3.8,3.37-5.71c5.03-8.55,12.52-11.71,22.32-11.08c8.31,0.53,16.71,0.51,25.02,0
		c9.79-0.6,17.3,2.51,22.29,11.12c2.22,3.82,4.35,7.71,6.81,11.37c0.65,0.96,2.68,1.96,3.57,1.62c7.48-2.88,14.84-6.06,22.4-9.23
		c-1.4-5.46-2.78-10.61-4.04-15.78c-1.99-8.11-0.5-15.25,5.68-21.27c7.57-7.37,14.95-14.94,22.43-22.41
		c5.14-5.14,11.24-7.53,18.5-5.94c4.92,1.07,9.78,2.43,14.67,3.63c2.02,0.5,3.78,1.08,4.87-1.84c2.42-6.49,5.38-12.78,7.8-19.27
		c0.39-1.06-0.44-3.34-1.42-4c-4.04-2.74-8.42-4.97-12.55-7.6c-7.7-4.9-10.44-11.99-9.9-21.03c0.52-8.64,0.56-17.37,0.02-26
		c-0.58-9.07,2.23-16.13,9.87-21.05c4.11-2.65,8.47-4.91,12.58-7.56c0.92-0.59,2.05-2.37,1.77-3.09
		c-2.99-7.72-6.24-15.34-9.41-22.94c-5.86,1.54-11.01,3.05-16.24,4.22c-8.54,1.91-15.74-0.28-21.84-6.87
		c-6.42-6.94-13.12-13.65-20.07-20.06c-6.74-6.22-8.94-13.51-6.82-22.25c1.25-5.18,2.64-10.33,4.08-15.92
		C233.49,206.17,225.54,202.87,217.13,199.37z"/>
	<path class="st0" d="M308.36,36.86c5.8-0.49,10.14,3.12,14.38,6.64c3.09,2.57,5.85,3.68,9.59,1.11c2.16-1.48,4.81-2.59,7.38-3.08
		c5.72-1.09,7.19-4.62,7.55-9.93c0.72-10.37,6.82-17.55,15.25-18.33c4.55-0.42,9.16-0.11,13.75-0.13c1.74-0.01,3.49,0.13,5.22-0.02
		c14.44-1.3,21.95,6.81,22.56,20.47c0.17,3.72,1.34,6.34,5.63,7.32c3.63,0.83,7.11,2.61,10.43,4.38c2.64,1.41,4.49,1.03,6.77-0.74
		c4.57-3.54,8.83-7.65,15.29-7.77c5.23-0.09,9.63,1.47,13.3,5.07c4.97,4.87,9.96,9.72,14.74,14.77c6.5,6.86,7.34,15.94,1.18,23.2
		c-4.96,5.86-5.62,10.56-2.36,17.89c3.11,6.99,6.27,10.47,14.14,11.23c10.75,1.05,15.76,7.92,15.77,18.82c0.01,5.69,0,11.38,0,17.08
		c-0.01,11.8-5.52,18.82-17.09,19.74c-6.8,0.54-9.44,3.42-12.22,9.44c-3.61,7.82-3.79,13.36,2.25,20.01
		c5.62,6.18,4.7,15.45-0.97,21.69c-5.1,5.61-10.49,10.98-16.08,16.11c-6.33,5.81-15.67,6.67-22.08,0.95
		c-6.31-5.63-11.53-5.94-19.12-2.36c-6.16,2.9-9.53,5.44-10.27,12.77c-1.2,11.99-7.74,16.78-19.89,16.8
		c-5.69,0.01-11.38,0.03-17.08-0.01c-10.54-0.07-16.77-5.25-18.8-15.57c-0.18-0.93-0.41-1.87-0.39-2.81
		c0.08-5.26-2.19-7.77-7.31-10.21c-8.66-4.12-15.3-4.87-22.98,2.23c-5.57,5.15-15.07,3.53-20.86-1.88
		c-5.43-5.07-10.7-10.33-15.76-15.76c-5.78-6.21-6.69-15.8-1.07-22.1c5.58-6.25,6.12-11.44,2.48-19.1c-3-6.32-5.64-9.76-13.15-10.34
		c-11.1-0.86-16.42-7.96-16.47-19.28c-0.03-6.32-0.1-12.65,0.03-18.97c0.19-9.34,5.61-16.2,14.97-17.13
		c7.88-0.79,11.97-3.67,15.03-11.52c2.8-7.18,2.54-11.71-2.3-17.46c-6.44-7.65-5.52-16.78,1.4-23.93
		c4.61-4.77,9.34-9.44,14.09-14.09C298.81,38.62,302.96,36.57,308.36,36.86z M368.03,34.19c-0.38,2.65-0.79,5.12-1.09,7.6
		c-1.03,8.66-5.23,14.49-13.89,17.23c-5.82,1.84-11.43,4.48-16.97,7.1c-6.89,3.26-13.38,3.2-19.65-1.31
		c-2.67-1.92-5.28-3.93-7.59-5.66c-3.74,3.69-7.27,7.17-10.84,10.7c1.57,2.1,3.12,4.3,4.79,6.4c5.44,6.81,5.81,13.86,1.87,21.62
		c-2.7,5.32-4.97,10.91-6.83,16.57c-2.68,8.18-8.19,12.41-16.51,13.47c-2.75,0.35-5.49,0.87-8.17,1.3c0,5.13,0,9.83,0,14.83
		c2.63,0.38,5.09,0.81,7.57,1.09c8.04,0.93,13.86,4.65,16.8,12.54c2.41,6.48,5.06,12.89,7.89,19.21c2.98,6.66,2.55,12.85-1.71,18.76
		c-1.93,2.67-3.92,5.3-5.64,7.62c3.76,3.64,7.33,7.09,10.97,10.62c1.84-1.38,4.03-2.93,6.12-4.61c6.8-5.44,13.85-5.8,21.62-1.87
		c5.46,2.76,11.26,4.9,17.03,6.96c6.84,2.44,11.24,6.81,12.54,14.06c0.63,3.51,1.18,7.02,1.77,10.51c5.19,0,9.89,0,14.87,0
		c0.42-2.93,0.84-5.71,1.21-8.49c1.03-7.71,4.92-13.08,12.36-15.89c6.47-2.44,12.89-5.06,19.2-7.89c6.66-2.99,12.85-2.58,18.77,1.66
		c2.69,1.93,5.31,3.95,7.65,5.69c3.66-3.67,7.17-7.21,10.76-10.81c-1.49-1.97-3.07-4.14-4.74-6.25c-5.38-6.81-5.82-13.87-1.9-21.64
		c2.76-5.46,4.97-11.23,7-17.01c2.41-6.87,6.76-11.26,14-12.57c3.52-0.64,7.05-1.18,10.53-1.76c0-5.24,0-10.08,0-14.97
		c-3.08-0.41-5.9-0.75-8.71-1.16c-7.89-1.15-13.16-5.29-15.84-13.03c-2.11-6.08-4.71-12.02-7.42-17.86
		c-3.29-7.11-3-13.71,1.82-20.01c1.89-2.47,3.7-4.99,5.47-7.37c-3.62-3.73-7.01-7.23-10.48-10.81c-2.56,1.91-4.97,3.68-7.33,5.5
		c-6.6,5.09-13.45,5.22-20.85,1.64c-5.65-2.73-11.53-5.07-17.45-7.18c-6.88-2.45-11.11-7.03-12.5-14.14
		c-0.66-3.37-1.01-6.81-1.53-10.4C377.94,34.19,373.1,34.19,368.03,34.19z"/>
	<path class="st0" d="M248.31,337.85c0.05,40.94-33.65,74.71-74.46,74.61c-40.64-0.1-74.3-33.86-74.2-74.4
		c0.11-40.78,33.56-74.26,74.25-74.3C214.67,263.72,248.26,297.17,248.31,337.85z M173.88,390.21
		c28.75,0.11,52.09-23.01,52.41-51.91c0.31-28.46-23.23-52.28-51.92-52.53c-28.87-0.24-52.51,23.31-52.46,52.29
		C121.95,367.08,144.89,390.1,173.88,390.21z"/>
	<path class="st0" d="M419.57,136.55c0.02,24.34-20.18,44.53-44.28,44.26c-24.13-0.27-43.98-20.19-44.02-44.2
		c-0.05-24.21,20.18-44.3,44.43-44.12C400.05,92.67,419.56,112.26,419.57,136.55z M375.41,112.32
		c-13.5,0.07-24.51,11.14-24.32,24.46c0.19,13.18,11.08,24.05,24.24,24.2c13.31,0.15,24.39-10.89,24.43-24.36
		C399.81,123.1,388.94,112.25,375.41,112.32z"/>
</g>
</svg>
