<?xml version="1.0" encoding="utf-8"?>
<!-- Generator: Adobe Illustrator 26.0.1, SVG Export Plug-In . SVG Version: 6.00 Build 0)  -->
<svg version="1.1" id="Ebene_1" xmlns="http://www.w3.org/2000/svg" xmlns:xlink="http://www.w3.org/1999/xlink" x="0px" y="0px"
	 viewBox="0 0 512 512" style="enable-background:new 0 0 512 512;" xml:space="preserve">
<style type="text/css">
	.st0{fill:#FFFFFF;}
</style>
<g>
	<g>
		<path class="st0" d="M498.63,387.78c-0.36,0.65-0.8,1.28-1.08,1.96c-3.51,8.61-10.12,13.19-19.35,13.19
			c-148.12,0.01-296.25-0.04-444.37,0.1c-10.84,0.01-22.19-9.23-20.25-23.45c65.35,0,130.76,0,196.49,0
			c0.16,2.34,0.32,4.63,0.5,7.26c30.5,0,60.88,0,91.59,0c0.14-2.43,0.27-4.73,0.43-7.6c65.42,0,130.73,0,196.05,0
			C498.63,382.09,498.63,384.94,498.63,387.78z M77.98,392.14c0-0.35,0-0.69,0-1.04c-6.55,0-13.1,0-19.65,0c0,0.35,0,0.69,0,1.04
			C64.88,392.14,71.43,392.14,77.98,392.14z"/>
		<path class="st0" d="M256.2,109.14c60.66,0,121.31,0,181.97,0c10.99,0,15.87,4.86,15.87,15.83c0.01,76.77,0.01,153.54,0,230.3
			c0,11.33-5.05,16.31-16.55,16.31c-121,0-241.99,0-362.99,0c-11.77,0-16.55-4.84-16.55-16.73c0-76.45,0.12-152.9-0.15-229.36
			c-0.03-9.22,5.23-16.61,16.43-16.54C134.89,109.33,195.54,109.14,256.2,109.14z M79.33,129.98c0,73.92,0,147.26,0,220.6
			c118.11,0,235.85,0,353.75,0c0-73.64,0-146.99,0-220.6C315.08,129.98,197.34,129.98,79.33,129.98z M256.29,125.29
			c1.98-2.87,4.12-4.62,3.91-6.01c-0.24-1.58-2.6-2.83-4.03-4.22c-1.34,1.43-3.58,2.77-3.76,4.33
			C252.25,120.81,254.33,122.48,256.29,125.29z"/>
	</g>
	<g>
		<g>
			<path class="st0" d="M295.7,245.17l-2.4,12.27H238.2c2.61,10.07,6.93,18.01,12.98,23.82c6.87,6.64,15.47,9.95,25.78,9.95
				c11.08,0,20.68-2.72,28.8-8.18h1.24v17.15c-10.07,4.15-20.12,6.22-30.13,6.22c-16.24,0-29.39-4.68-39.46-14.04
				c-9.13-8.47-15.14-20.12-18.04-34.93h-10.13l2.49-12.27h6.13c-0.18-2.37-0.27-4.77-0.27-7.2c0-1.72,0.03-3.41,0.09-5.07h-8.44
				l2.49-12.27h7.38c2.72-15.52,8.86-27.79,18.4-36.8c10.31-9.72,23.52-14.58,39.64-14.58c10.55,0,20.5,2.1,29.86,6.31v17.33h-1.42
				c-8.35-5.75-17.9-8.62-28.62-8.62c-10.9,0-19.85,3.64-26.84,10.93c-5.99,6.28-10.13,14.75-12.44,25.42h63.02l-2.4,12.27h-62.22
				c-0.12,1.66-0.18,3.35-0.18,5.07c0,2.43,0.09,4.83,0.27,7.2H295.7z"/>
		</g>
	</g>
</g>
</svg>
