<?xml version="1.0" encoding="utf-8"?>
<!-- Generator: Adobe Illustrator 21.1.0, SVG Export Plug-In . SVG Version: 6.00 Build 0)  -->
<svg version="1.1" id="Layer_1" xmlns="http://www.w3.org/2000/svg" xmlns:xlink="http://www.w3.org/1999/xlink" x="0px" y="0px"
	 width="30px" height="30px" viewBox="0 0 30 30" style="enable-background:new 0 0 30 30;" xml:space="preserve">
<style type="text/css">
	.st0{fill-rule:evenodd;clip-rule:evenodd;fill:#878786;}
</style>
<g id="search_x5F_regular">
	<g>
		<path class="st0" d="M29.8,27.5l-7.1-7.1c-0.1-0.1-0.3-0.2-0.5-0.2h-0.8c1.8-2.1,3-4.9,3-8C24.4,5.5,18.9,0,12.2,0
			C5.5,0,0,5.5,0,12.2c0,6.7,5.5,12.2,12.2,12.2c3,0,5.8-1.1,8-3v0.8c0,0.2,0.1,0.4,0.2,0.5l7.1,7.1c0.3,0.3,0.7,0.3,1,0l1.3-1.3
			C30.1,28.2,30.1,27.7,29.8,27.5z M12.2,21.6c-5.2,0-9.4-4.2-9.4-9.4C2.8,7,7,2.8,12.2,2.8c5.2,0,9.4,4.2,9.4,9.4
			C21.6,17.4,17.4,21.6,12.2,21.6z"/>
	</g>
</g>
</svg>
