<?xml version="1.0" encoding="utf-8"?>
<!-- Generator: Adobe Illustrator 21.0.2, SVG Export Plug-In . SVG Version: 6.00 Build 0)  -->
<svg version="1.1" id="Ebene_1" xmlns="http://www.w3.org/2000/svg" xmlns:xlink="http://www.w3.org/1999/xlink" x="0px" y="0px"
	 width="197px" height="197px" viewBox="0 0 197 197" style="enable-background:new 0 0 197 197;" xml:space="preserve">
<style type="text/css">
	.st0{fill-rule:evenodd;clip-rule:evenodd;fill:#FFFFFF;}
</style>
<g id="icon_x5F_play">
	<g>
		<path class="st0" d="M98.5,0C44.2,0,0,44.2,0,98.5C0,152.8,44.2,197,98.5,197c54.3,0,98.5-44.2,98.5-98.5C197,44.2,152.8,0,98.5,0
			z M98.5,185.2c-47.8,0-86.7-38.9-86.7-86.7c0-47.8,38.9-86.7,86.7-86.7c47.8,0,86.7,38.9,86.7,86.7
			C185.2,146.3,146.3,185.2,98.5,185.2z M145.7,88.5L78.8,51.2c-3.6-2-8.3-2-11.9,0.1c-3.6,2.1-5.9,6.1-5.9,10.3v74.7
			c0,4.2,2.3,8.2,5.9,10.3c1.8,1.1,3.9,1.6,6,1.6c2,0,4.1-0.5,5.8-1.5l66.9-37.4c3.8-2.1,6.1-6.1,6.1-10.4
			C151.8,94.6,149.5,90.6,145.7,88.5z"/>
	</g>
</g>
</svg>
