<?xml version="1.0" encoding="utf-8"?>
<!-- Generator: Adobe Illustrator 26.0.1, SVG Export Plug-In . SVG Version: 6.00 Build 0)  -->
<svg version="1.1" id="Ebene_1" xmlns="http://www.w3.org/2000/svg" xmlns:xlink="http://www.w3.org/1999/xlink" x="0px" y="0px"
	 viewBox="0 0 512 512" style="enable-background:new 0 0 512 512;" xml:space="preserve">
<style type="text/css">
	.st0{fill:#FFFFFF;}
</style>
<g transform="translate(0.000000,512.000000) scale(0.100000,-0.100000)">
	<path class="st0" d="M2355.19,5008c-15.33-1.92-69.95-14.37-119.77-25.87c-321.95-78.57-568.21-267.34-699.48-536.59
		c-44.08-91.03-86.24-221.34-86.24-269.25c0-16.29-7.67-23-30.66-27.79c-17.25-2.87-44.08-21.08-64.2-43.12
		c-31.62-33.54-39.29-37.37-94.86-41.2c-63.24-4.79-94.86-21.08-130.31-68.99c-18.21-23-20.12-42.16-23-174.39l-2.87-147.56h-83.36
		c-128.4,0-205.05-44.08-250.09-143.73c-19.16-42.16-20.12-57.49-20.12-1039.64v-996.52l-53.66-32.58
		c-102.53-61.32-225.18-194.51-278.83-302.79c-10.54-21.08-28.75-65.16-39.29-96.78c-25.87-74.74-126.48-655.4-126.48-727.27
		c0-91.99,48.87-169.6,129.36-206.97c37.37-17.25,114.02-18.21,2178.93-18.21H4701.8l41.2,20.12
		c54.62,25.87,95.82,77.61,114.98,142.77c14.37,49.83,14.37,59.41-6.71,191.64c-23.96,152.35-29.7,171.52-52.7,194.51
		c-22.04,23-76.66,21.08-100.61-2.87c-24.91-24.91-24.91-66.12,0.96-213.68c31.62-188.76,31.62-188.76-311.41-188.76h-245.3
		l-4.79,21.08c-2.87,12.46-22.04,132.23-44.08,266.38c-43.12,272.13-49.83,302.79-75.7,316.2c-29.7,15.33-74.74,11.5-95.82-9.58
		c-26.83-26.83-24.91-58.45,19.16-327.7c21.08-128.4,38.33-240.51,38.33-249.13c0-16.29-73.78-17.25-1423.87-17.25H1131.57
		l4.79,26.83c2.87,14.37,23,138.94,45.99,277.88l40.24,252l-19.16,25.87c-15.33,21.08-26.83,25.87-60.37,25.87
		c-66.12,0-69.95-9.58-121.69-328.66l-45.04-279.79H739.67c-129.36,0-249.13,2.87-265.42,5.75c-44.08,8.62-68.99,37.37-68.99,76.66
		c0,32.58,57.49,387.11,92.94,568.21c28.75,154.27,83.36,253.92,189.72,354.53c114.02,106.36,157.14,120.73,656.36,227.09
		l435.98,91.99l43.12-25.87c140.85-83.36,306.62-148.52,469.51-183.01c110.19-23.95,410.11-24.91,523.17-1.92
		c163.85,33.54,348.78,106.36,474.31,185.89l41.2,25.87l416.81-88.15c229.97-48.87,442.69-96.78,474.31-107.32
		c187.81-66.12,335.37-228.05,385.19-423.52c11.5-45.99,23-69.95,41.2-84.32c46.95-37.37,115.94-0.96,115.94,60.37
		c0,86.24-70.91,252-149.48,352.61c-81.45,103.48-226.13,206.01-343.99,243.38c-25.87,7.67-272.13,62.28-545.21,120.73
		c-274.04,58.45-504.01,111.15-512.63,117.86c-68.99,53.66-81.45,89.11-85.28,249.13l-3.83,140.85l106.36,101.57
		c260.63,248.17,367.95,442.68,389.98,710.98l6.71,78.57h34.49c40.24,0,89.11,26.83,112.11,62.28c13.41,20.12,23,23.95,66.12,23.95
		c64.2,0,125.52,31.62,149.48,76.66c17.25,30.66,18.21,60.37,18.21,388.07s-0.96,357.41-18.21,388.07
		c-23.95,45.04-85.28,76.66-148.52,76.66c-44.08,0-51.74,2.87-74.74,32.58c-14.37,18.21-41.2,38.33-58.45,45.03
		c-31.62,11.5-33.54,15.33-56.53,108.28c-45.99,186.85-129.36,328.66-271.17,463.77c-137.02,130.31-286.5,209.84-503.05,268.29
		c-81.45,22.04-111.15,23.95-292.25,26.83C2474.96,5011.83,2371.48,5010.88,2355.19,5008z M2781.58,4846.07
		c101.57-20.12,183.97-47.91,273.08-92.94c113.07-56.53,175.35-101.57,252.96-184.93c99.65-107.32,155.23-206.97,192.6-350.7
		l17.25-65.16h-957.23h-958.19l6.71,36.41c28.75,159.06,142.77,344.95,278.83,455.14c145.65,117.86,352.61,197.39,573,221.34
		C2524.79,4871.94,2705.88,4861.4,2781.58,4846.07z M3643.96,3601.38v-397.65h-417.77h-417.77l-77.61,34.49
		c-127.44,57.49-224.22,55.58-359.32-6.71c-52.7-23.95-71.86-27.79-144.69-27.79c-92.94,0-139.9-11.5-154.27-38.33
		c-15.33-29.7-10.54-71.86,10.54-94.86c20.12-21.08,24.91-22.04,151.39-18.21c127.44,2.87,132.23,3.83,210.8,40.24
		c96.78,44.08,134.15,44.08,240.51-4.79l71.86-32.58l358.36-2.87l358.36-2.87l-6.71-69.95c-14.37-157.14-71.86-296.08-180.14-434.06
		c-83.36-105.4-417.77-408.19-495.39-447.48c-126.48-65.16-327.7-68.03-455.14-5.75c-82.4,39.29-432.14,353.57-522.21,469.51
		c-91.03,115.94-151.39,270.21-168.64,429.27l-6.71,59.41h95.82c79.53,0,99.65,2.87,117.86,18.21
		c29.7,23.95,30.66,79.53,0.96,109.23c-20.12,20.12-29.7,21.08-203.14,23.95l-182.06,2.87v397.65v396.69h1087.55h1087.55V3601.38z
		 M1315.55,3601.38v-311.41h-28.75h-28.75v311.41v311.41h28.75h28.75V3601.38z M3854.76,3601.38v-311.41h-28.75h-28.75v311.41
		v311.41h28.75h28.75V3601.38z M1106.66,3381.95c2.87-132.23,4.79-151.39,23-174.39c36.41-48.87,67.07-65.16,133.19-68.99
		c55.58-3.83,65.16-6.71,82.4-31.62c24.91-35.45,65.16-56.53,107.32-56.53h32.58l11.5-91.99
		c32.58-265.42,119.77-429.27,352.61-661.15l137.98-137.02l-2.87-147.56c-2.87-141.81-3.83-148.52-28.75-186.85
		c-15.33-22.04-37.37-46.95-49.83-54.62c-12.46-8.62-235.72-60.37-496.34-115.94c-259.67-54.62-480.05-102.53-488.68-105.4
		c-16.29-4.79-17.25,45.04-17.25,952.44c0,952.44,0,957.23,20.12,983.11c23,28.75,61.32,42.16,130.31,43.12l49.83,0.96
		L1106.66,3381.95z M2322.61,1931.25c218.47-71.86,465.68-41.2,613.24,75.7l37.37,29.7v-51.74c0-135.11,36.41-235.72,110.19-309.5
		l41.2-41.2l-78.57-33.54c-319.08-137.02-675.53-135.11-988.85,4.79l-67.07,29.7l41.2,38.33c23,21.08,54.62,65.16,71.86,99.65
		c25.87,53.66,30.66,73.78,34.49,160.98l4.79,98.69l59.41-41.2C2235.41,1969.57,2289.07,1941.79,2322.61,1931.25z"/>
	<path class="st0" d="M2773.92,3834.22c-5.75-5.75-11.5-18.21-11.5-25.87c0-8.62,26.83-103.48,60.37-211.76
		c55.58-181.1,62.28-197.39,86.24-205.05c16.29-5.75,35.45-5.75,52.7,0c23.95,8.62,30.66,23,85.28,200.26
		c68.03,217.51,70.91,241.46,37.37,250.09c-51.74,12.46-54.62,7.67-100.61-157.14c-23.95-85.28-45.99-155.23-48.87-155.23
		s-23.95,69.95-47.91,156.19c-43.12,154.27-43.12,155.23-71.86,158.1C2798.83,3845.71,2780.62,3840.92,2773.92,3834.22z"/>
	<path class="st0" d="M3152.4,3839.01c-3.83-2.87-6.71-102.53-6.71-219.43c0-203.14,0.96-214.64,19.16-224.22
		c10.54-5.75,29.7-7.67,43.12-3.83c23,5.75,23.95,7.67,23.95,95.82c0,87.2,0.96,90.07,22.04,90.07c17.25,0,30.66-18.21,71.86-95.82
		c55.58-103.48,75.7-116.9,113.07-75.7c17.25,19.16,17.25,21.08-23,99.65l-41.2,80.49l29.7,26.83
		c32.58,29.7,49.83,84.32,41.2,131.27c-15.33,81.45-51.74,101.57-185.89,101.57C3204.14,3845.71,3155.28,3842.84,3152.4,3839.01z
		 M3339.25,3752.77c21.08-19.16,23-72.82,2.87-89.11c-8.62-6.71-36.41-14.37-62.28-17.25l-47.91-4.79v64.2v63.24h45.04
		C3304.75,3769.06,3327.75,3763.31,3339.25,3752.77z"/>
</g>
</svg>
